<svg id="visual" viewBox="0 0 900 200" width="900" height="200" xmlns="http://www.w3.org/2000/svg" xmlns:xlink="http://www.w3.org/1999/xlink" version="1.1"><rect x="0" y="0" width="900" height="200" fill="#1c1c1c"></rect><path d="M0 49L16.7 60.8C33.3 72.7 66.7 96.3 100 107.5C133.3 118.7 166.7 117.3 200 109.8C233.3 102.3 266.7 88.7 300 84.2C333.3 79.7 366.7 84.3 400 91.3C433.3 98.3 466.7 107.7 500 106.7C533.3 105.7 566.7 94.3 600 87.5C633.3 80.7 666.7 78.3 700 79.7C733.3 81 766.7 86 800 82.7C833.3 79.3 866.7 67.7 883.3 61.8L900 56L900 201L883.3 201C866.7 201 833.3 201 800 201C766.7 201 733.3 201 700 201C666.7 201 633.3 201 600 201C566.7 201 533.3 201 500 201C466.7 201 433.3 201 400 201C366.7 201 333.3 201 300 201C266.7 201 233.3 201 200 201C166.7 201 133.3 201 100 201C66.7 201 33.3 201 16.7 201L0 201Z" fill="#1f1f1f"></path><path d="M0 111L16.7 114.2C33.3 117.3 66.7 123.7 100 119C133.3 114.3 166.7 98.7 200 92.8C233.3 87 266.7 91 300 97.5C333.3 104 366.7 113 400 119.8C433.3 126.7 466.7 131.3 500 125.7C533.3 120 566.7 104 600 96.5C633.3 89 666.7 90 700 96C733.3 102 766.7 113 800 115.5C833.3 118 866.7 112 883.3 109L900 106L900 201L883.3 201C866.7 201 833.3 201 800 201C766.7 201 733.3 201 700 201C666.7 201 633.3 201 600 201C566.7 201 533.3 201 500 201C466.7 201 433.3 201 400 201C366.7 201 333.3 201 300 201C266.7 201 233.3 201 200 201C166.7 201 133.3 201 100 201C66.7 201 33.3 201 16.7 201L0 201Z" fill="#505050"></path><path d="M0 153L16.7 144.8C33.3 136.7 66.7 120.3 100 118.7C133.3 117 166.7 130 200 129.5C233.3 129 266.7 115 300 116.2C333.3 117.3 366.7 133.7 400 142.2C433.3 150.7 466.7 151.3 500 146.2C533.3 141 566.7 130 600 127.7C633.3 125.3 666.7 131.7 700 134.5C733.3 137.3 766.7 136.7 800 137.5C833.3 138.3 866.7 140.7 883.3 141.8L900 143L900 201L883.3 201C866.7 201 833.3 201 800 201C766.7 201 733.3 201 700 201C666.7 201 633.3 201 600 201C566.7 201 533.3 201 500 201C466.7 201 433.3 201 400 201C366.7 201 333.3 201 300 201C266.7 201 233.3 201 200 201C166.7 201 133.3 201 100 201C66.7 201 33.3 201 16.7 201L0 201Z" fill="#868686"></path><path d="M0 164L16.7 162.5C33.3 161 66.7 158 100 156C133.3 154 166.7 153 200 155.8C233.3 158.7 266.7 165.3 300 162.8C333.3 160.3 366.7 148.7 400 142.8C433.3 137 466.7 137 500 140.2C533.3 143.3 566.7 149.7 600 153.5C633.3 157.3 666.7 158.7 700 155.3C733.3 152 766.7 144 800 143.5C833.3 143 866.7 150 883.3 153.5L900 157L900 201L883.3 201C866.7 201 833.3 201 800 201C766.7 201 733.3 201 700 201C666.7 201 633.3 201 600 201C566.7 201 533.3 201 500 201C466.7 201 433.3 201 400 201C366.7 201 333.3 201 300 201C266.7 201 233.3 201 200 201C166.7 201 133.3 201 100 201C66.7 201 33.3 201 16.7 201L0 201Z" fill="#c1c1c1"></path><path d="M0 182L16.7 182.7C33.3 183.3 66.7 184.7 100 181.7C133.3 178.7 166.7 171.3 200 172.5C233.3 173.7 266.7 183.3 300 183C333.3 182.7 366.7 172.3 400 167.2C433.3 162 466.7 162 500 161.5C533.3 161 566.7 160 600 163.3C633.3 166.7 666.7 174.3 700 179.2C733.3 184 766.7 186 800 186.2C833.3 186.3 866.7 184.7 883.3 183.8L900 183L900 201L883.3 201C866.7 201 833.3 201 800 201C766.7 201 733.3 201 700 201C666.7 201 633.3 201 600 201C566.7 201 533.3 201 500 201C466.7 201 433.3 201 400 201C366.7 201 333.3 201 300 201C266.7 201 233.3 201 200 201C166.7 201 133.3 201 100 201C66.7 201 33.3 201 16.7 201L0 201Z" fill="#ffffff"></path></svg>