<svg id="visual" viewBox="0 0 900 200" width="900" height="200" xmlns="http://www.w3.org/2000/svg" xmlns:xlink="http://www.w3.org/1999/xlink" version="1.1"><path d="M0 52L11.5 55.5C23 59 46 66 69 66.2C92 66.3 115 59.7 138.2 55.8C161.3 52 184.7 51 207.8 51.3C231 51.7 254 53.3 277 53.8C300 54.3 323 53.7 346 55.7C369 57.7 392 62.3 415.2 61.5C438.3 60.7 461.7 54.3 484.8 51.3C508 48.3 531 48.7 554 53.7C577 58.7 600 68.3 623 68.3C646 68.3 669 58.7 692.2 54.3C715.3 50 738.7 51 761.8 53.5C785 56 808 60 831 59.3C854 58.7 877 53.3 888.5 50.7L900 48L900 201L888.5 201C877 201 854 201 831 201C808 201 785 201 761.8 201C738.7 201 715.3 201 692.2 201C669 201 646 201 623 201C600 201 577 201 554 201C531 201 508 201 484.8 201C461.7 201 438.3 201 415.2 201C392 201 369 201 346 201C323 201 300 201 277 201C254 201 231 201 207.8 201C184.7 201 161.3 201 138.2 201C115 201 92 201 69 201C46 201 23 201 11.5 201L0 201Z" fill="#ffffff"></path><path d="M0 105L11.5 105.2C23 105.3 46 105.7 69 101.8C92 98 115 90 138.2 85.3C161.3 80.7 184.7 79.3 207.8 82.2C231 85 254 92 277 95.7C300 99.3 323 99.7 346 100.3C369 101 392 102 415.2 100.2C438.3 98.3 461.7 93.7 484.8 90.7C508 87.7 531 86.3 554 88.3C577 90.3 600 95.7 623 96.7C646 97.7 669 94.3 692.2 93.5C715.3 92.7 738.7 94.3 761.8 96.5C785 98.7 808 101.3 831 100.3C854 99.3 877 94.7 888.5 92.3L900 90L900 201L888.5 201C877 201 854 201 831 201C808 201 785 201 761.8 201C738.7 201 715.3 201 692.2 201C669 201 646 201 623 201C600 201 577 201 554 201C531 201 508 201 484.8 201C461.7 201 438.3 201 415.2 201C392 201 369 201 346 201C323 201 300 201 277 201C254 201 231 201 207.8 201C184.7 201 161.3 201 138.2 201C115 201 92 201 69 201C46 201 23 201 11.5 201L0 201Z" fill="#c0c0c0"></path><path d="M0 115L11.5 116.5C23 118 46 121 69 120.8C92 120.7 115 117.3 138.2 114.8C161.3 112.3 184.7 110.7 207.8 111.7C231 112.7 254 116.3 277 119C300 121.7 323 123.3 346 122.3C369 121.3 392 117.7 415.2 115.5C438.3 113.3 461.7 112.7 484.8 115.7C508 118.7 531 125.3 554 126.3C577 127.3 600 122.7 623 122.2C646 121.7 669 125.3 692.2 123.7C715.3 122 738.7 115 761.8 112.5C785 110 808 112 831 115.5C854 119 877 124 888.5 126.5L900 129L900 201L888.5 201C877 201 854 201 831 201C808 201 785 201 761.8 201C738.7 201 715.3 201 692.2 201C669 201 646 201 623 201C600 201 577 201 554 201C531 201 508 201 484.8 201C461.7 201 438.3 201 415.2 201C392 201 369 201 346 201C323 201 300 201 277 201C254 201 231 201 207.8 201C184.7 201 161.3 201 138.2 201C115 201 92 201 69 201C46 201 23 201 11.5 201L0 201Z" fill="#848484"></path><path d="M0 132L11.5 136C23 140 46 148 69 148.3C92 148.7 115 141.3 138.2 140C161.3 138.7 184.7 143.3 207.8 142.7C231 142 254 136 277 135C300 134 323 138 346 142.5C369 147 392 152 415.2 150.5C438.3 149 461.7 141 484.8 139C508 137 531 141 554 140.5C577 140 600 135 623 132.8C646 130.7 669 131.3 692.2 134.7C715.3 138 738.7 144 761.8 143.7C785 143.3 808 136.7 831 137.5C854 138.3 877 146.7 888.5 150.8L900 155L900 201L888.5 201C877 201 854 201 831 201C808 201 785 201 761.8 201C738.7 201 715.3 201 692.2 201C669 201 646 201 623 201C600 201 577 201 554 201C531 201 508 201 484.8 201C461.7 201 438.3 201 415.2 201C392 201 369 201 346 201C323 201 300 201 277 201C254 201 231 201 207.8 201C184.7 201 161.3 201 138.2 201C115 201 92 201 69 201C46 201 23 201 11.5 201L0 201Z" fill="#4d4d4d"></path><path d="M0 167L11.5 168C23 169 46 171 69 170.2C92 169.3 115 165.7 138.2 163.5C161.3 161.3 184.7 160.7 207.8 161.2C231 161.7 254 163.3 277 165.2C300 167 323 169 346 168.7C369 168.3 392 165.7 415.2 166.8C438.3 168 461.7 173 484.8 172.7C508 172.3 531 166.7 554 164.2C577 161.7 600 162.3 623 165.3C646 168.3 669 173.7 692.2 173.3C715.3 173 738.7 167 761.8 165.8C785 164.7 808 168.3 831 168.7C854 169 877 166 888.5 164.5L900 163L900 201L888.5 201C877 201 854 201 831 201C808 201 785 201 761.8 201C738.7 201 715.3 201 692.2 201C669 201 646 201 623 201C600 201 577 201 554 201C531 201 508 201 484.8 201C461.7 201 438.3 201 415.2 201C392 201 369 201 346 201C323 201 300 201 277 201C254 201 231 201 207.8 201C184.7 201 161.3 201 138.2 201C115 201 92 201 69 201C46 201 23 201 11.5 201L0 201Z" fill="#1c1c1c"></path></svg>