<svg id="visual" viewBox="0 0 900 200" width="900" height="200" xmlns="http://www.w3.org/2000/svg" xmlns:xlink="http://www.w3.org/1999/xlink" version="1.1"><path d="M0 39L21.5 37C43 35 86 31 128.8 35.7C171.7 40.3 214.3 53.7 257.2 61.2C300 68.7 343 70.3 385.8 75.3C428.7 80.3 471.3 88.7 514.2 91.2C557 93.7 600 90.3 642.8 85.7C685.7 81 728.3 75 771.2 67.2C814 59.3 857 49.7 878.5 44.8L900 40L900 201L878.5 201C857 201 814 201 771.2 201C728.3 201 685.7 201 642.8 201C600 201 557 201 514.2 201C471.3 201 428.7 201 385.8 201C343 201 300 201 257.2 201C214.3 201 171.7 201 128.8 201C86 201 43 201 21.5 201L0 201Z" fill="#0f0f0f"></path><path d="M0 113L21.5 106.7C43 100.3 86 87.7 128.8 82.2C171.7 76.7 214.3 78.3 257.2 80.8C300 83.3 343 86.7 385.8 92.8C428.7 99 471.3 108 514.2 112.2C557 116.3 600 115.7 642.8 106.7C685.7 97.7 728.3 80.3 771.2 71.2C814 62 857 61 878.5 60.5L900 60L900 201L878.5 201C857 201 814 201 771.2 201C728.3 201 685.7 201 642.8 201C600 201 557 201 514.2 201C471.3 201 428.7 201 385.8 201C343 201 300 201 257.2 201C214.3 201 171.7 201 128.8 201C86 201 43 201 21.5 201L0 201Z" fill="#121212"></path><path d="M0 132L21.5 129C43 126 86 120 128.8 119.3C171.7 118.7 214.3 123.3 257.2 120.5C300 117.7 343 107.3 385.8 100.3C428.7 93.3 471.3 89.7 514.2 95.5C557 101.3 600 116.7 642.8 120.8C685.7 125 728.3 118 771.2 108.8C814 99.7 857 88.3 878.5 82.7L900 77L900 201L878.5 201C857 201 814 201 771.2 201C728.3 201 685.7 201 642.8 201C600 201 557 201 514.2 201C471.3 201 428.7 201 385.8 201C343 201 300 201 257.2 201C214.3 201 171.7 201 128.8 201C86 201 43 201 21.5 201L0 201Z" fill="#151515"></path><path d="M0 106L21.5 113C43 120 86 134 128.8 136.2C171.7 138.3 214.3 128.7 257.2 121.3C300 114 343 109 385.8 113.2C428.7 117.3 471.3 130.7 514.2 133.5C557 136.3 600 128.7 642.8 128.2C685.7 127.7 728.3 134.3 771.2 134.3C814 134.3 857 127.7 878.5 124.3L900 121L900 201L878.5 201C857 201 814 201 771.2 201C728.3 201 685.7 201 642.8 201C600 201 557 201 514.2 201C471.3 201 428.7 201 385.8 201C343 201 300 201 257.2 201C214.3 201 171.7 201 128.8 201C86 201 43 201 21.5 201L0 201Z" fill="#171717"></path><path d="M0 136L21.5 140.3C43 144.7 86 153.3 128.8 153.7C171.7 154 214.3 146 257.2 145.8C300 145.7 343 153.3 385.8 154.3C428.7 155.3 471.3 149.7 514.2 146.3C557 143 600 142 642.8 141.2C685.7 140.3 728.3 139.7 771.2 143.3C814 147 857 155 878.5 159L900 163L900 201L878.5 201C857 201 814 201 771.2 201C728.3 201 685.7 201 642.8 201C600 201 557 201 514.2 201C471.3 201 428.7 201 385.8 201C343 201 300 201 257.2 201C214.3 201 171.7 201 128.8 201C86 201 43 201 21.5 201L0 201Z" fill="#1a1a1a"></path><path d="M0 181L21.5 179.5C43 178 86 175 128.8 170.7C171.7 166.3 214.3 160.7 257.2 158.3C300 156 343 157 385.8 157.8C428.7 158.7 471.3 159.3 514.2 158.5C557 157.7 600 155.3 642.8 158.2C685.7 161 728.3 169 771.2 173C814 177 857 177 878.5 177L900 177L900 201L878.5 201C857 201 814 201 771.2 201C728.3 201 685.7 201 642.8 201C600 201 557 201 514.2 201C471.3 201 428.7 201 385.8 201C343 201 300 201 257.2 201C214.3 201 171.7 201 128.8 201C86 201 43 201 21.5 201L0 201Z" fill="#1c1c1c"></path></svg>