<svg id="visual" viewBox="0 0 900 600" width="900" height="300" xmlns="http://www.w3.org/2000/svg" xmlns:xlink="http://www.w3.org/1999/xlink" version="1.1"><rect x="0" y="0" width="900" height="600" fill="#ffffff"></rect><path d="M0 389L8.8 393.3C17.7 397.7 35.3 406.3 53 406.3C70.7 406.3 88.3 397.7 106 393.3C123.7 389 141.3 389 159 390.7C176.7 392.3 194.3 395.7 212 400.7C229.7 405.7 247.3 412.3 265 410.5C282.7 408.7 300.3 398.3 318 392.7C335.7 387 353.3 386 371 391.2C388.7 396.3 406.3 407.7 423.8 408C441.3 408.3 458.7 397.7 476.2 392.7C493.7 387.7 511.3 388.3 529 391.8C546.7 395.3 564.3 401.7 582 401.5C599.7 401.3 617.3 394.7 635 392.5C652.7 390.3 670.3 392.7 688 394.8C705.7 397 723.3 399 741 402.5C758.7 406 776.3 411 794 414.2C811.7 417.3 829.3 418.7 847 415.8C864.7 413 882.3 406 891.2 402.5L900 399L900 601L891.2 601C882.3 601 864.7 601 847 601C829.3 601 811.7 601 794 601C776.3 601 758.7 601 741 601C723.3 601 705.7 601 688 601C670.3 601 652.7 601 635 601C617.3 601 599.7 601 582 601C564.3 601 546.7 601 529 601C511.3 601 493.7 601 476.2 601C458.7 601 441.3 601 423.8 601C406.3 601 388.7 601 371 601C353.3 601 335.7 601 318 601C300.3 601 282.7 601 265 601C247.3 601 229.7 601 212 601C194.3 601 176.7 601 159 601C141.3 601 123.7 601 106 601C88.3 601 70.7 601 53 601C35.3 601 17.7 601 8.8 601L0 601Z" fill="#c8c8c8"></path><path d="M0 422L8.8 423.8C17.7 425.7 35.3 429.3 53 429.5C70.7 429.7 88.3 426.3 106 424.8C123.7 423.3 141.3 423.7 159 427.3C176.7 431 194.3 438 212 437.3C229.7 436.7 247.3 428.3 265 427.3C282.7 426.3 300.3 432.7 318 433C335.7 433.3 353.3 427.7 371 425.7C388.7 423.7 406.3 425.3 423.8 426.8C441.3 428.3 458.7 429.7 476.2 431C493.7 432.3 511.3 433.7 529 433.8C546.7 434 564.3 433 582 435.8C599.7 438.7 617.3 445.3 635 449C652.7 452.7 670.3 453.3 688 450.2C705.7 447 723.3 440 741 440.2C758.7 440.3 776.3 447.7 794 450.2C811.7 452.7 829.3 450.3 847 450C864.7 449.7 882.3 451.3 891.2 452.2L900 453L900 601L891.2 601C882.3 601 864.7 601 847 601C829.3 601 811.7 601 794 601C776.3 601 758.7 601 741 601C723.3 601 705.7 601 688 601C670.3 601 652.7 601 635 601C617.3 601 599.7 601 582 601C564.3 601 546.7 601 529 601C511.3 601 493.7 601 476.2 601C458.7 601 441.3 601 423.8 601C406.3 601 388.7 601 371 601C353.3 601 335.7 601 318 601C300.3 601 282.7 601 265 601C247.3 601 229.7 601 212 601C194.3 601 176.7 601 159 601C141.3 601 123.7 601 106 601C88.3 601 70.7 601 53 601C35.3 601 17.7 601 8.8 601L0 601Z" fill="#a2a2a2"></path><path d="M0 471L8.8 471.8C17.7 472.7 35.3 474.3 53 475.8C70.7 477.3 88.3 478.7 106 474.7C123.7 470.7 141.3 461.3 159 459.7C176.7 458 194.3 464 212 464.3C229.7 464.7 247.3 459.3 265 457.3C282.7 455.3 300.3 456.7 318 460.7C335.7 464.7 353.3 471.3 371 473.7C388.7 476 406.3 474 423.8 471.2C441.3 468.3 458.7 464.7 476.2 464.8C493.7 465 511.3 469 529 472.3C546.7 475.7 564.3 478.3 582 474.7C599.7 471 617.3 461 635 461.2C652.7 461.3 670.3 471.7 688 476.2C705.7 480.7 723.3 479.3 741 476.3C758.7 473.3 776.3 468.7 794 465.7C811.7 462.7 829.3 461.3 847 459.2C864.7 457 882.3 454 891.2 452.5L900 451L900 601L891.2 601C882.3 601 864.7 601 847 601C829.3 601 811.7 601 794 601C776.3 601 758.7 601 741 601C723.3 601 705.7 601 688 601C670.3 601 652.7 601 635 601C617.3 601 599.7 601 582 601C564.3 601 546.7 601 529 601C511.3 601 493.7 601 476.2 601C458.7 601 441.3 601 423.8 601C406.3 601 388.7 601 371 601C353.3 601 335.7 601 318 601C300.3 601 282.7 601 265 601C247.3 601 229.7 601 212 601C194.3 601 176.7 601 159 601C141.3 601 123.7 601 106 601C88.3 601 70.7 601 53 601C35.3 601 17.7 601 8.8 601L0 601Z" fill="#7e7e7e"></path><path d="M0 484L8.8 486.8C17.7 489.7 35.3 495.3 53 499.3C70.7 503.3 88.3 505.7 106 504C123.7 502.3 141.3 496.7 159 495.8C176.7 495 194.3 499 212 501C229.7 503 247.3 503 265 499.8C282.7 496.7 300.3 490.3 318 487C335.7 483.7 353.3 483.3 371 484.3C388.7 485.3 406.3 487.7 423.8 491.5C441.3 495.3 458.7 500.7 476.2 501.7C493.7 502.7 511.3 499.3 529 499.8C546.7 500.3 564.3 504.7 582 504.8C599.7 505 617.3 501 635 497.2C652.7 493.3 670.3 489.7 688 490C705.7 490.3 723.3 494.7 741 498C758.7 501.3 776.3 503.7 794 501C811.7 498.3 829.3 490.7 847 489C864.7 487.3 882.3 491.7 891.2 493.8L900 496L900 601L891.2 601C882.3 601 864.7 601 847 601C829.3 601 811.7 601 794 601C776.3 601 758.7 601 741 601C723.3 601 705.7 601 688 601C670.3 601 652.7 601 635 601C617.3 601 599.7 601 582 601C564.3 601 546.7 601 529 601C511.3 601 493.7 601 476.2 601C458.7 601 441.3 601 423.8 601C406.3 601 388.7 601 371 601C353.3 601 335.7 601 318 601C300.3 601 282.7 601 265 601C247.3 601 229.7 601 212 601C194.3 601 176.7 601 159 601C141.3 601 123.7 601 106 601C88.3 601 70.7 601 53 601C35.3 601 17.7 601 8.8 601L0 601Z" fill="#5b5b5c"></path><path d="M0 532L8.8 531.7C17.7 531.3 35.3 530.7 53 529.2C70.7 527.7 88.3 525.3 106 523C123.7 520.7 141.3 518.3 159 517C176.7 515.7 194.3 515.3 212 517.3C229.7 519.3 247.3 523.7 265 526.2C282.7 528.7 300.3 529.3 318 530.2C335.7 531 353.3 532 371 531.2C388.7 530.3 406.3 527.7 423.8 526.7C441.3 525.7 458.7 526.3 476.2 528C493.7 529.7 511.3 532.3 529 531.8C546.7 531.3 564.3 527.7 582 525.7C599.7 523.7 617.3 523.3 635 522.3C652.7 521.3 670.3 519.7 688 519.2C705.7 518.7 723.3 519.3 741 522.3C758.7 525.3 776.3 530.7 794 533.2C811.7 535.7 829.3 535.3 847 534C864.7 532.7 882.3 530.3 891.2 529.2L900 528L900 601L891.2 601C882.3 601 864.7 601 847 601C829.3 601 811.7 601 794 601C776.3 601 758.7 601 741 601C723.3 601 705.7 601 688 601C670.3 601 652.7 601 635 601C617.3 601 599.7 601 582 601C564.3 601 546.7 601 529 601C511.3 601 493.7 601 476.2 601C458.7 601 441.3 601 423.8 601C406.3 601 388.7 601 371 601C353.3 601 335.7 601 318 601C300.3 601 282.7 601 265 601C247.3 601 229.7 601 212 601C194.3 601 176.7 601 159 601C141.3 601 123.7 601 106 601C88.3 601 70.7 601 53 601C35.3 601 17.7 601 8.8 601L0 601Z" fill="#3b3b3c"></path><path d="M0 558L8.8 559C17.7 560 35.3 562 53 562.3C70.7 562.7 88.3 561.3 106 559.2C123.7 557 141.3 554 159 553C176.7 552 194.3 553 212 553.5C229.7 554 247.3 554 265 553.7C282.7 553.3 300.3 552.7 318 552.8C335.7 553 353.3 554 371 555.8C388.7 557.7 406.3 560.3 423.8 560.3C441.3 560.3 458.7 557.7 476.2 557.2C493.7 556.7 511.3 558.3 529 557.8C546.7 557.3 564.3 554.7 582 552.8C599.7 551 617.3 550 635 550.3C652.7 550.7 670.3 552.3 688 553.7C705.7 555 723.3 556 741 555.5C758.7 555 776.3 553 794 552.5C811.7 552 829.3 553 847 553.8C864.7 554.7 882.3 555.3 891.2 555.7L900 556L900 601L891.2 601C882.3 601 864.7 601 847 601C829.3 601 811.7 601 794 601C776.3 601 758.7 601 741 601C723.3 601 705.7 601 688 601C670.3 601 652.7 601 635 601C617.3 601 599.7 601 582 601C564.3 601 546.7 601 529 601C511.3 601 493.7 601 476.2 601C458.7 601 441.3 601 423.8 601C406.3 601 388.7 601 371 601C353.3 601 335.7 601 318 601C300.3 601 282.7 601 265 601C247.3 601 229.7 601 212 601C194.3 601 176.7 601 159 601C141.3 601 123.7 601 106 601C88.3 601 70.7 601 53 601C35.3 601 17.7 601 8.8 601L0 601Z" fill="#1d1d1f"></path></svg>